<svg width="24" height="24" viewBox="0 0 24 24" fill="none" xmlns="http://www.w3.org/2000/svg">
<path d="M2.25 12.044V18.561C2.25 19.325 2.558 20.131 3.05 20.688C3.551 21.255 4.404 21.7 5.337 21.231C6.033 20.881 6.612 20.868 7.083 21.184C8.209 21.939 9.791 21.939 10.917 21.184C11.262 20.954 11.524 20.876 11.742 20.874C11.96 20.873 12.227 20.946 12.582 21.184C13.709 21.939 15.291 21.939 16.417 21.184C16.63 21.042 16.997 20.947 17.461 20.958C17.915 20.968 18.359 21.078 18.663 21.231C19.596 21.7 20.449 21.255 20.95 20.688C21.442 20.131 21.75 19.325 21.75 18.562V12.044C21.75 6.639 17.388 2.25 12 2.25C6.612 2.25 2.25 6.639 2.25 12.044ZM16.766 12.978C16.9042 13.1209 16.9801 13.3128 16.9769 13.5115C16.9737 13.7103 16.8917 13.8996 16.749 14.038C16.5775 14.2046 16.3987 14.3634 16.213 14.514L16.431 14.959C16.6839 15.4933 16.7163 16.1057 16.5213 16.6637C16.3263 17.2218 15.9195 17.6806 15.3888 17.9412C14.8582 18.2017 14.2464 18.2429 13.6856 18.0559C13.1248 17.869 12.6601 17.4688 12.392 16.942L12.119 16.385C10.8605 16.6301 9.56394 16.6004 8.318 16.298C8.12759 16.2474 7.96474 16.1239 7.86464 15.9542C7.76453 15.7845 7.73522 15.5823 7.78304 15.3911C7.83085 15.2 7.95195 15.0354 8.12017 14.9328C8.28838 14.8302 8.4902 14.798 8.682 14.843C9.812 15.126 11.111 15.13 12.428 14.777C13.745 14.424 14.868 13.772 15.706 12.961C15.8489 12.8228 16.0408 12.7469 16.2395 12.7501C16.4383 12.7533 16.6276 12.8353 16.766 12.978ZM13.739 16.281L13.592 15.982C14.0727 15.8087 14.528 15.602 14.958 15.362L15.085 15.62C15.1645 15.7974 15.172 15.9988 15.1059 16.1816C15.0399 16.3645 14.9054 16.5145 14.7308 16.6001C14.5562 16.6857 14.3552 16.7002 14.1702 16.6405C13.9852 16.5808 13.8306 16.4525 13.739 16.281ZM9.329 10L9.432 10.489C9.45497 10.5863 9.45827 10.6871 9.4417 10.7857C9.42513 10.8843 9.38903 10.9785 9.33552 11.0629C9.28201 11.1473 9.21217 11.2202 9.1301 11.2772C9.04803 11.3343 8.95539 11.3743 8.85762 11.3951C8.75985 11.4158 8.65892 11.4168 8.56077 11.3979C8.46262 11.3791 8.36922 11.3409 8.28606 11.2854C8.2029 11.23 8.13166 11.1585 8.07653 11.0751C8.02139 10.9918 7.98347 10.8982 7.965 10.8L7.861 10.311C7.83803 10.2137 7.83473 10.1129 7.8513 10.0143C7.86787 9.91573 7.90397 9.82148 7.95748 9.73707C8.01099 9.65266 8.08083 9.57979 8.1629 9.52276C8.24497 9.46572 8.33761 9.42566 8.43538 9.40493C8.53315 9.38421 8.63408 9.38323 8.73223 9.40206C8.83039 9.42089 8.92378 9.45915 9.00694 9.51459C9.0901 9.57002 9.16134 9.64152 9.21647 9.72488C9.27161 9.80824 9.30953 9.90178 9.328 10M13.328 8.382C13.4244 8.36146 13.5239 8.36012 13.6208 8.37806C13.7177 8.39599 13.8101 8.43286 13.8928 8.48654C13.9755 8.54022 14.0467 8.60966 14.1025 8.6909C14.1583 8.77214 14.1976 8.86358 14.218 8.96L14.322 9.449C14.3442 9.54598 14.347 9.64641 14.33 9.74445C14.3131 9.84248 14.2768 9.93617 14.2232 10.02C14.1697 10.1039 14.1001 10.1763 14.0183 10.233C13.9365 10.2897 13.8443 10.3295 13.747 10.3502C13.6497 10.3709 13.5492 10.3721 13.4515 10.3536C13.3537 10.335 13.2606 10.2973 13.1776 10.2424C13.0946 10.1876 13.0233 10.1168 12.9679 10.0341C12.9125 9.95148 12.8741 9.85863 12.855 9.761L12.751 9.271C12.7098 9.07647 12.7476 8.87354 12.856 8.70684C12.9643 8.54013 13.1345 8.42329 13.329 8.382" fill="#00FF00"/>
</svg>
